<?xml version="1.0" encoding="utf-8"?>
<!-- Generator: Adobe Illustrator 15.1.0, SVG Export Plug-In . SVG Version: 6.00 Build 0)  -->
<!DOCTYPE svg PUBLIC "-//W3C//DTD SVG 1.1//EN" "http://www.w3.org/Graphics/SVG/1.1/DTD/svg11.dtd">
<svg version="1.1" id="Layer_1" xmlns="http://www.w3.org/2000/svg" xmlns:xlink="http://www.w3.org/1999/xlink" x="0px" y="0px"
	 width="240.737px" height="234.576px" viewBox="0 0 240.737 234.576" enable-background="new 0 0 240.737 234.576"
	 xml:space="preserve">
<g>
	<g>
		<g>
			<g>
				<path fill="#FFFFFF" d="M193.021,208.822H44.548c-7.207,0-12.854-5.776-12.854-13.15V42.474c0-7.087,5.767-12.854,12.854-12.854
					h148.473c6.963,0,12.845,5.887,12.845,12.854v153.197C205.866,202.922,200.104,208.822,193.021,208.822z"/>
			</g>
			<g>
				<path fill-rule="evenodd" clip-rule="evenodd" fill="#4B5EAA" d="M44.548,34.304h148.473c4.397,0,8.161,3.776,8.161,8.17
					v153.197c0,4.697-3.764,8.467-8.161,8.467H44.548c-4.715,0-8.17-3.77-8.17-8.467V42.474
					C36.378,38.081,39.833,34.304,44.548,34.304L44.548,34.304z"/>
			</g>
		</g>
		<path fill-rule="evenodd" clip-rule="evenodd" fill="#FAA61A" d="M36.378,91.886c2.396,0,5.443,0,7.817,0
			c71.205,0,128.989-7.502,128.989-19.666c0-13.431-57.784-24.365-128.989-24.365c-2.374,0-5.422,0-7.817,0v-3.187
			c5.418-0.167,11.984,0.375,17.488,0.375c76.841,0,139,15.612,139,33.73s-62.159,30.915-139,30.915
			c-5.504,0-12.07,0.013-17.488-0.229V91.886L36.378,91.886z"/>
		<path fill-rule="evenodd" clip-rule="evenodd" fill="#FFFFFF" d="M58.96,180.602c-0.297-0.624-1.643-1.769-3.216-1.769
			c-3.114,0-4.589,3.014-4.589,6.141c0,3.744,1.879,6.253,4.689,6.253c1.564,0,3.115-1.254,3.439-1.566l0,0v1.245
			c-1.264,0.924-2.5,1.248-3.748,1.248c-3.751,0-5.936-2.809-5.936-7.18c0-4.372,2.815-6.878,6.244-6.878
			c1.246,0,2.51,0.321,3.745,0.945L58.96,180.602z"/>
		<path fill-rule="evenodd" clip-rule="evenodd" fill="#FFFFFF" d="M63.909,179.114c0.611,0,1.856,0,2.493,0
			c1.255,0.31,1.948,1.179,1.948,2.437c0,1.535-0.719,2.339-1.954,2.654c-0.955,0.303-2.121,0.145-2.431,0.145v-5.308
			L63.909,179.114z M66.351,185.081c1.545-0.321,3.231-1.355,3.231-3.845c0-1.904-0.917-2.818-3.427-2.818h-3.438v13.412l0,0
			c0,0,0.309,0,0.618,0c0.321,0,0.321,0,0.63,0v-6.541h0.826l4.372,6.541c0.312,0,0.419,0,0.734,0c0.314,0,0.617,0,0.945,0
			L66.351,185.081z"/>
		<path fill-rule="evenodd" clip-rule="evenodd" fill="#FFFFFF" d="M75.234,179.423v-0.092v4.715h2.475c0.306,0,0.934,0,1.563,0
			v1.242c-0.63-0.314-1.258-0.314-1.563-0.314h-2.475v5.771l4.334-0.02c0,0.312,0.02,0.18,0.02,0.501c0,0,0,0.303,0,0.603h-5.933
			v-13.412h5.933c0,0,0,0.309,0,0.624v0.382H75.234z"/>
		<path fill-rule="evenodd" clip-rule="evenodd" fill="#FFFFFF" d="M128.955,179.423v-0.092v4.715h2.507c0.321,0,0.926,0,1.566,0
			v1.242c-0.641-0.314-1.245-0.314-1.566-0.314h-2.507v5.771l4.356-0.02c0,0.312,0.025,0.18,0.025,0.501c0,0,0,0.303,0,0.603h-5.945
			v-13.412h5.945c0,0,0,0.309,0,0.624v0.382H128.955z"/>
		<path fill-rule="evenodd" clip-rule="evenodd" fill="#FFFFFF" d="M178.266,179.423v-0.092v4.715h2.503c0.321,0,0.933,0,1.551,0
			v1.242c-0.618-0.314-1.229-0.314-1.551-0.314h-2.503v5.771l4.337-0.02c0,0.312,0.032,0.18,0.032,0.501c0,0,0,0.303,0,0.603h-5.933
			v-13.412h5.933c0,0,0,0.309,0,0.624v0.382H178.266z"/>
		<path fill-rule="evenodd" clip-rule="evenodd" fill="#FFFFFF" d="M84.574,179.042c0.631,0,1.254,0,2.19,0
			c3.439,0,4.996,1.561,4.996,5.623c0,2.478-0.618,4.681-2.496,5.63c-1.255,0.933-3.111,0.611-4.69,0.611V179.042L84.574,179.042z
			 M83.01,191.83h3.454c1.545,0,3.43-0.3,4.994-1.535c1.248-1.258,1.865-3.152,1.865-5.945c0-1.875-0.314-3.747-1.563-5.018
			c-1.557-1.235-3.108-0.914-4.996-0.914H83.01V191.83L83.01,191.83z"/>
		<path fill-rule="evenodd" clip-rule="evenodd" fill="#FFFFFF" d="M96.753,191.83c0.318,0,0.637,0,0.965,0c0.303,0,0.303,0,0.605,0
			v-13.412c-0.303,0-0.303,0-0.605,0c-0.328,0-0.646,0-0.965,0V191.83L96.753,191.83z"/>
		<path fill-rule="evenodd" clip-rule="evenodd" fill="#FFFFFF" d="M101.138,179.332c0.93,0,2.178,0,3.751,0v12.498
			c0.318,0,0.634,0,0.634,0c0.296,0,0.611,0,0.92,0v-12.498l0,0c1.261,0,2.496,0,3.43,0v-0.29c0-0.315,0-0.624,0-0.624h-8.734
			V179.332z"/>
		<path fill-rule="evenodd" clip-rule="evenodd" fill="#FFFFFF" d="M123.886,179.114"/>
		<line fill-rule="evenodd" clip-rule="evenodd" fill="#FFFFFF" x1="123.313" y1="180.602" x2="123.313" y2="180.602"/>
		<path fill-rule="evenodd" clip-rule="evenodd" fill="#FFFFFF" d="M117.38,190.906c0.631,0.624,1.879,1.248,2.815,1.248
			c2.181,0,4.05-1.859,4.05-4.671c0-4.073-5.302-2.818-5.302-6.247c0-1.576,0.927-2.408,2.19-2.408c0.918,0,1.873,0.832,2.179,1.774
			l0.573-1.488c0.013-0.022,0.038-0.041,0.057-0.072c-0.63-0.624-1.718-1.034-2.663-1.034c-1.869,0-3.59,1.324-3.59,3.84
			c0,4.387,5.317,2.817,5.317,6.556c0,1.57-1.062,2.711-2.32,2.711c-1.566,0-2.064-0.819-2.676-2.077L117.38,190.906z"/>
		<path fill-rule="evenodd" clip-rule="evenodd" fill="#FFFFFF" d="M138.43,179.042c0.631,0,1.875,0,2.506,0
			c1.238,0.29,1.545,1.251,1.545,2.509c0,1.535-0.618,2.496-1.851,2.799c-0.955,0.315-1.904,0-2.2,0V179.042L138.43,179.042z
			 M140.694,185.175c1.856-0.321,3.359-1.45,3.359-3.939c0-1.904-0.933-2.818-3.748-2.818h-3.426v13.412l0,0c0.303,0,0.611,0,0.92,0
			c0,0,0.322,0,0.631,0v-6.541h0.631l4.375,6.541c0.309,0,0.617,0,0.939,0c0.296,0,0.604,0,0.926,0L140.694,185.175z"/>
		<path fill-rule="evenodd" clip-rule="evenodd" fill="#FFFFFF" d="M151.423,189.661l3.751-11.225l1.241-0.019
			c-0.314,1.242-4.06,11.243-4.678,13.412h-0.314h-0.303c-1.879-4.688-4.382-11.852-5.012-13.412c0.309,0,0.63,0,0.952,0
			c0,0,0.289,0,0.62,0L151.423,189.661z"/>
		<path fill-rule="evenodd" clip-rule="evenodd" fill="#FFFFFF" d="M152.684,187.142"/>
		<path fill-rule="evenodd" clip-rule="evenodd" fill="#FFFFFF" d="M159.247,191.83c0.309,0,0.617,0,0.927,0c0,0,0.309,0,0.608,0
			v-13.412c-0.3,0-0.608,0-0.608,0c-0.31,0-0.618,0-0.927,0V191.83L159.247,191.83z"/>
		<path fill-rule="evenodd" clip-rule="evenodd" fill="#FFFFFF" d="M173.292,180.602c-0.335-0.624-1.608-1.737-3.165-1.737
			c-3.124,0-4.652,2.982-4.652,6.109c0,3.744,1.879,6.253,4.69,6.253c1.557,0,3.127-1.254,3.438-1.566l0,0v1.245
			c-1.245,0.924-2.506,1.248-3.76,1.248c-3.732,0-5.927-2.809-5.927-7.18c0-4.372,2.815-6.878,6.248-6.878
			c1.241,0,2.496,0.321,3.744,0.945L173.292,180.602z"/>
		<g>
			<path fill-rule="evenodd" clip-rule="evenodd" fill="#FFFFFF" d="M83.231,142.988v7.824c4.385,0.63,9.948,1.021,16.202,1.021
				c1.241,0,2.691-0.075,3.627-0.075l-0.068-0.315l-0.086-0.583c-0.05-0.42-0.303-2.077-0.303-3.694
				c0-12.189,9.98-22.188,21.832-22.188c12.186,0,21.851,9.998,21.851,22.188c0,12.164-9.64,22.244-21.851,22.149
				c-9.513-0.072-16.832-5.721-20.262-13.818c-1.557,0-3.461,0.092-5.327,0.092c-5.63,0-10.944-0.41-15.615-1.021v0.085v9.657
				h20.603v4.389H78.863v-14.936c-5.924-1.32-9.835-3.195-9.908-5.316c-0.075-2.186,3.272-3.963,9.908-5.52v-13.882l-27.796,39.653
				h-5.61l29.68-42.768h28.697v4.671H83.231v11.53c3.884-0.429,6.393-0.939,15.729-1.043c0,0,0.387-0.003,0.422,0.413
				c0,0,0,0.429-0.429,0.447C98.954,141.948,91.414,141.771,83.231,142.988z"/>
			<polygon fill-rule="evenodd" clip-rule="evenodd" fill="#FFFFFF" points="182.266,125.925 182.266,168.69 177.573,168.69 
				153.236,134.03 153.236,168.69 148.87,168.69 148.87,125.925 153.236,125.925 177.573,160.882 177.573,125.925 182.266,125.925 
							"/>
			<path fill-rule="evenodd" clip-rule="evenodd" fill="#4B5EAA" d="M78.944,149.976c-3.893-0.886-5.598-2.115-5.592-3.086
				c0.013-1.125,1.602-2.049,5.592-3.089v6.128V149.976z"/>
			<path fill-rule="evenodd" clip-rule="evenodd" fill="#4B5EAA" d="M124.517,129.667c9.667,0.006,17.396,7.811,17.487,17.494
				c0.095,9.626-7.564,17.774-17.487,17.777c-6.547,0-12.539-3.924-15.363-9.617l-0.031-0.062l-0.041-0.086
				c11.148-1.059,19.955-3.611,19.533-7.136c-0.359-2.994-9.047-5.643-19.354-6.519c-0.426-0.035-0.477,0.397-0.477,0.397
				c-0.037,0.435,0.406,0.466,0.406,0.466c15.837,1.368,15.055,4.584,15.055,4.584c-0.06,1.922-6.275,3.744-16.485,4.545
				c0,0-2.345-7.799,3.045-14.919C110.805,136.592,115.565,129.658,124.517,129.667z"/>
		</g>
	</g>
</g>
</svg>
